<svg viewBox="0 0 374 105" fill="none" xmlns="http://www.w3.org/2000/svg">
<g clip-path="url(#clip0_2_701)">
<path d="M0 35.1516C0 31.0237 0.746299 26.9753 2.23848 23.006C3.7311 19.0367 5.90596 15.417 8.76394 12.1463C11.6219 8.87601 15.1145 6.27207 19.2428 4.33496C23.3707 2.39826 28.0699 1.42969 33.341 1.42969C39.5646 1.42969 44.947 2.79506 49.4877 5.5258C54.0283 8.25651 57.4103 11.8131 59.633 16.1951L49.5354 23.1492C48.3923 20.6089 46.8997 18.5922 45.0579 17.1C43.2163 15.6074 41.2477 14.5597 39.1519 13.9566C37.0562 13.353 34.9922 13.0516 32.9601 13.0516C29.6576 13.0516 26.7842 13.7184 24.3388 15.052C21.894 16.3855 19.8459 18.1318 18.1947 20.2911C16.5435 22.4506 15.3213 24.8636 14.5272 27.5311C13.7332 30.1982 13.3364 32.8654 13.3364 35.5329C13.3364 38.5177 13.8127 41.3911 14.7654 44.1537C15.718 46.9162 17.0675 49.3615 18.8138 51.4887C20.5605 53.6163 22.6562 55.2993 25.1011 56.5378C27.5459 57.776 30.2294 58.395 33.1505 58.395C35.2463 58.395 37.3739 58.046 39.5329 57.3474C41.6922 56.6488 43.6926 55.5375 45.5343 54.0131C47.376 52.489 48.8049 50.5205 49.8212 48.1071L60.5856 54.299C59.2521 57.6651 57.0767 60.5224 54.0601 62.8727C51.0435 65.2223 47.6618 67.0003 43.9148 68.2073C40.1682 69.4136 36.453 70.0168 32.7696 70.0168C27.9431 70.0168 23.5293 69.0163 19.5283 67.0161C15.5276 65.0158 12.0824 62.3483 9.19258 59.0145C6.30321 55.6802 4.04882 51.9337 2.42938 47.7739C0.809941 43.6142 0 39.4067 0 35.1516Z" fill="#FBFAFC"/>
<path d="M68.1113 0.00146484H80.8764V53.7125C80.8764 55.9987 81.2573 57.5545 82.0192 58.3485C82.781 59.1418 83.8292 59.5391 85.1627 59.5391C86.1789 59.5391 87.2266 59.4119 88.3063 59.1582C89.3861 58.9038 90.3387 58.5865 91.1641 58.2053L92.8791 67.9222C91.1641 68.7476 89.1638 69.3828 86.8777 69.8273C84.5917 70.2718 82.5272 70.4941 80.6857 70.4941C76.6846 70.4941 73.5882 69.4301 71.3978 67.2869C69.2062 65.1595 68.1113 62.1267 68.1113 58.1736V0.00146484Z" fill="#FBFAFC"/>
<path d="M98.4062 69.5415V19.6252L111.076 19.7206L111.171 69.5415H98.4062ZM98.4062 12.5761V0.00146484H111.076L111.171 12.6711L98.4062 12.5761Z" fill="#FBFAFC"/>
<path d="M145.942 70.4932C141.878 70.4932 138.226 69.8107 134.987 68.4609C131.748 67.1116 128.985 65.238 126.699 62.809C124.413 60.3957 122.651 57.649 121.413 54.5688C120.174 51.4885 119.555 48.2655 119.555 44.868C119.555 40.2161 120.619 35.9613 122.747 32.1034C124.874 28.2451 127.906 25.1494 131.844 22.8313C135.781 20.4974 140.449 19.3384 145.847 19.3384C151.245 19.3384 155.881 20.5133 159.755 22.8631C163.629 25.213 166.518 28.2928 168.423 32.1034L155.944 35.9136C154.865 34.0719 153.436 32.6589 151.658 31.6748C149.88 30.6903 147.911 30.1981 145.752 30.1981C143.338 30.1981 141.132 30.8013 139.131 32.0239C137.131 33.2306 135.559 34.9451 134.416 37.1522C133.272 39.3748 132.701 41.9469 132.701 44.868C132.701 47.7419 133.289 50.2663 134.464 52.4889C135.638 54.696 137.21 56.4423 139.179 57.7122C141.147 58.9986 143.338 59.6333 145.752 59.6333C147.276 59.6333 148.721 59.3796 150.086 58.8715C151.451 58.3634 152.673 57.665 153.754 56.7755C154.833 55.8864 155.627 54.8706 156.135 53.7275L168.614 57.5377C167.471 60.0142 165.804 62.2373 163.613 64.206C161.422 66.1748 158.85 67.7148 155.896 68.826C152.944 69.9373 149.626 70.4932 145.942 70.4932Z" fill="#FBFAFC"/>
<path d="M174.487 19.1589V0H187.252V30.8979L174.487 19.1589ZM192.89 36.0819L207.352 20.1H220.88L200.489 43.0709L192.89 36.0819Z" fill="#FBFAFC"/>
<path d="M249.968 70.4932C245.967 70.4932 242.347 69.8107 239.109 68.4609C235.869 67.1116 233.123 65.2537 230.868 62.8562C228.614 60.4745 226.899 57.7599 225.724 54.7115C224.549 51.6635 223.962 48.4246 223.962 44.9635C223.962 41.5024 224.549 38.2476 225.724 35.1674C226.899 32.0875 228.614 29.3568 230.868 26.9751C233.123 24.5776 235.869 22.72 239.109 21.3705C242.347 20.0211 245.967 19.3384 249.968 19.3384C254.096 19.3384 257.764 20.0211 260.971 21.3705C264.177 22.72 266.924 24.5776 269.21 26.9751C271.496 29.3568 273.228 32.0875 274.403 35.1674C275.577 38.2476 276.165 41.5024 276.165 44.9635C276.165 48.4246 275.577 51.6635 274.403 54.7115C273.228 57.7599 271.513 60.4745 269.258 62.8562C267.004 65.2537 264.257 67.1116 261.018 68.4609C257.779 69.8107 254.096 70.4932 249.968 70.4932ZM236.918 45.0585C236.981 47.8529 237.584 50.3613 238.728 52.5844C239.87 54.791 241.426 56.5219 243.396 57.7599C245.364 59.0144 247.555 59.6654 249.968 59.729C252.445 59.6654 254.668 58.9986 256.636 57.7122C258.605 56.4423 260.177 54.696 261.352 52.4889C262.527 50.2663 263.146 47.7419 263.209 44.868C263.146 42.0737 262.527 39.5493 261.352 37.2949C260.177 35.0564 258.621 33.2943 256.684 32.0239C254.747 30.7381 252.54 30.1345 250.064 30.1981C247.586 30.1981 245.364 30.8172 243.396 32.0716C241.426 33.3097 239.87 35.0564 238.728 37.2949C237.584 39.5493 236.981 42.1214 236.918 45.0585Z" fill="#FBFAFC"/>
<path d="M284.264 51.0599V20.1006H297.028V48.25C297.028 52.0125 297.727 54.8547 299.124 56.76C300.521 58.6806 302.586 59.6332 305.316 59.6332C306.968 59.6332 308.603 59.3001 310.222 58.6491C311.841 57.9981 313.334 57.0136 314.7 55.7119C316.065 54.4101 317.224 52.7589 318.176 50.7745V20.1006H330.941V55.2992C330.941 56.6168 331.179 57.5536 331.655 58.1253C332.132 58.6806 332.91 59.03 333.99 59.1572V69.5405C332.719 69.7307 331.655 69.8742 330.799 69.9693C329.941 70.0644 329.163 70.1122 328.465 70.1122C326.179 70.1122 324.321 69.5884 322.892 68.5559C321.463 67.5082 320.622 66.0796 320.367 64.2538L320.082 60.3C317.859 63.6343 315.001 66.1747 311.508 67.9049C308.015 69.6362 304.173 70.4931 299.982 70.4931C294.838 70.4931 290.932 68.8417 288.265 65.5395C285.597 62.2372 284.264 57.4108 284.264 51.0599Z" fill="#FBFAFC"/>
<path d="M373.333 67.0638C372.253 67.5083 370.951 68.0164 369.427 68.588C367.903 69.1597 366.268 69.62 364.521 69.9694C362.775 70.3188 361.012 70.4932 359.234 70.4932C356.885 70.4932 354.726 70.0808 352.756 69.2705C350.788 68.4451 349.216 67.1431 348.041 65.3488C346.866 63.555 346.279 61.2054 346.279 58.3158V29.9123H339.706V20.1006H346.279V3.90625H359.044V20.1006H369.523V29.9123H359.044V53.9816C359.108 55.6801 359.584 56.9028 360.473 57.649C361.362 58.3949 362.473 58.7764 363.807 58.7764C365.141 58.7764 366.443 58.5541 367.712 58.1095C368.983 57.665 369.999 57.2836 370.761 56.9664L373.333 67.0638Z" fill="#FBFAFC"/>
<path fill-rule="evenodd" clip-rule="evenodd" d="M174.487 100.538L194.4 70.4872L232.928 78.2846L174.637 24.6777L174.487 100.538Z" fill="#00A5FF"/>
</g>
<defs>
<clipPath id="clip0_2_701">
<rect width="373.333" height="105" fill="white"/>
</clipPath>
</defs>
</svg>
