<svg viewBox="0 0 431 100" fill="#5542F6" xmlns="http://www.w3.org/2000/svg">
<path fill-rule="evenodd" clip-rule="evenodd" d="M2.85468 -301.675C-233.075 -301.675 -424.334 -167.447 -424.334 -1.8703C-424.334 163.707 -233.075 297.934 2.85468 297.934C238.785 297.934 430.044 163.707 430.044 -1.8703C430.044 -167.447 238.785 -301.675 2.85468 -301.675ZM2.85468 -301.066C238.304 -301.066 429.175 -167.111 429.175 -1.8703C429.175 163.371 238.304 297.325 2.85468 297.325C-232.595 297.325 -423.465 163.371 -423.465 -1.8703C-423.465 -167.111 -232.595 -301.066 2.85468 -301.066ZM2.85468 -263.667C-203.115 -263.667 -370.087 -146.456 -370.087 -1.8703C-370.087 142.715 -203.115 259.926 2.85468 259.926C208.824 259.926 375.796 142.715 375.796 -1.8703C375.796 -146.456 208.824 -263.667 2.85468 -263.667ZM2.85468 -263.074C208.356 -263.074 374.95 -146.129 374.95 -1.8703C374.95 142.388 208.356 259.333 2.85468 259.333C-202.647 259.333 -369.24 142.388 -369.24 -1.8703C-369.24 -146.129 -202.647 -263.074 2.85468 -263.074ZM-315.84 -2.86761C-315.84 -126.465 -173.157 -226.659 2.8508 -226.659C178.865 -226.659 321.549 -126.466 321.549 -2.86761C321.549 120.726 178.864 220.919 2.8508 220.919C-173.156 220.919 -315.84 120.725 -315.84 -2.86761ZM320.724 -2.86761C320.724 -126.147 178.409 -226.081 2.8508 -226.081C-172.701 -226.081 -315.015 -126.146 -315.015 -2.86761C-315.015 120.406 -172.7 220.341 2.8508 220.341C178.408 220.341 320.724 120.407 320.724 -2.86761ZM3.56827 -186.651C-142.084 -186.651 -260.165 -103.697 -260.165 -1.3703C-260.165 100.957 -142.084 183.911 3.56827 183.911C149.226 183.911 267.301 100.958 267.301 -1.3703C267.301 -103.699 149.226 -186.651 3.56827 -186.651ZM3.56827 -186.089C148.782 -186.089 266.499 -103.389 266.499 -1.3703C266.499 100.648 148.782 183.349 3.56827 183.349C-141.641 183.349 -259.362 100.647 -259.362 -1.3703C-259.362 -103.387 -141.641 -186.089 3.56827 -186.089ZM-205.917 -1.3703C-205.917 -82.7076 -111.809 -148.643 4.28189 -148.643C120.372 -148.643 214.481 -82.7076 214.481 -1.3703C214.481 79.9669 120.372 145.903 4.28189 145.903C-111.809 145.903 -205.917 79.9669 -205.917 -1.3703ZM213.701 -1.3703C213.701 -82.406 119.942 -148.097 4.28192 -148.097C-111.378 -148.097 -205.138 -82.406 -205.138 -1.3703C-205.138 79.6654 -111.378 145.357 4.28192 145.357C119.942 145.357 213.701 79.6654 213.701 -1.3703ZM1.42358 -111.635C-83.9146 -111.635 -153.096 -62.9363 -153.096 -2.86761C-153.096 57.2001 -83.9161 105.895 1.42358 105.895C86.7647 105.895 155.951 57.1991 155.951 -2.86761C155.951 -62.9353 86.7632 -111.635 1.42358 -111.635ZM1.42365 -111.105C86.3447 -111.105 155.195 -62.6432 155.195 -2.86761C155.195 56.9069 86.3462 105.365 1.42365 105.365C-83.4975 105.365 -152.34 56.9079 -152.34 -2.86761C-152.34 -62.6442 -83.496 -111.105 1.42365 -111.105ZM-94.5667 -1.8703C-94.5667 -40.3964 -49.9893 -71.6273 4.99554 -71.6273C59.9854 -71.6273 104.558 -40.3982 104.558 -1.8703C104.558 36.6541 59.9828 67.8867 4.99554 67.8867C-49.9867 67.8867 -94.5667 36.6523 -94.5667 -1.8703ZM103.824 -1.8703C103.824 -40.1143 59.5803 -71.1133 4.99557 -71.1133C-49.5842 -71.1133 -93.8331 -40.1125 -93.8331 -1.8703C-93.8331 36.3684 -49.5815 67.3727 4.99557 67.3727C59.5776 67.3727 103.824 36.3703 103.824 -1.8703ZM4.28198 -33.6193C-21.1362 -33.6193 -41.7462 -19.1809 -41.7462 -1.3703C-41.7462 16.4403 -21.1362 30.8787 4.28198 30.8787C29.7052 30.8787 50.3101 16.4421 50.3101 -1.3703C50.3101 -19.1827 29.7052 -33.6193 4.28198 -33.6193ZM4.28198 -33.1213C29.3126 -33.1213 49.5993 -18.9077 49.5993 -1.3703C49.5993 16.1671 29.3126 30.3807 4.28198 30.3807C-20.7437 30.3807 -41.0353 16.1653 -41.0353 -1.3703C-41.0353 -18.9058 -20.7437 -33.1213 4.28198 -33.1213Z" />
</svg>
