<svg viewBox="0 0 16 16" fill="none" xmlns="http://www.w3.org/2000/svg">
<path d="M7.99967 1.3335C4.31967 1.3335 1.33301 4.32016 1.33301 8.00016C1.33301 11.6802 4.31967 14.6668 7.99967 14.6668C11.6797 14.6668 14.6663 11.6802 14.6663 8.00016C14.6663 4.32016 11.6797 1.3335 7.99967 1.3335ZM7.99967 3.3335C9.10634 3.3335 9.99967 4.22683 9.99967 5.3335C9.99967 6.44016 9.10634 7.3335 7.99967 7.3335C6.89301 7.3335 5.99967 6.44016 5.99967 5.3335C5.99967 4.22683 6.89301 3.3335 7.99967 3.3335ZM7.99967 12.8002C6.33301 12.8002 4.85967 11.9468 3.99967 10.6535C4.01967 9.32683 6.66634 8.60016 7.99967 8.60016C9.32634 8.60016 11.9797 9.32683 11.9997 10.6535C11.1397 11.9468 9.66634 12.8002 7.99967 12.8002Z" fill="#5542F6"/>
</svg>
