<svg viewBox="0 0 24 18" fill="#00A5FF" xmlns="http://www.w3.org/2000/svg">
<path d="M0 17.85H1.77778V9.54442C1.77778 9.29896 1.57879 9.09998 1.33333 9.09998H0.444444C0.198984 9.09998 0 9.29896 0 9.54442V17.85Z" fill="#E3E1E5"/>
<path d="M4.44434 17.85H6.22211V6.05831C6.22211 5.81285 6.02313 5.61386 5.77767 5.61386H4.88878C4.64332 5.61386 4.44434 5.81285 4.44434 6.05831V17.85Z" fill="#E3E1E5"/>
<path d="M8.88892 17.85H10.6667V1.29442C10.6667 1.04896 10.4677 0.849976 10.2222 0.849976H9.33336C9.0879 0.849976 8.88892 1.04896 8.88892 1.29442V17.85Z" fill="#E3E1E5"/>
<path d="M13.3333 17.85H15.111V3.04442C15.111 2.79896 14.912 2.59998 14.6666 2.59998H13.7777C13.5322 2.59998 13.3333 2.79896 13.3333 3.04442V17.85Z" fill="#E3E1E5"/>
<path d="M17.7778 17.85H19.5556V1.80831C19.5556 1.56285 19.3566 1.36386 19.1112 1.36386H18.2223C17.9768 1.36386 17.7778 1.56285 17.7778 1.80831V17.85Z" fill="#E3E1E5"/>
<path d="M22.2222 17.85H23.9999V3.80831C23.9999 3.56285 23.801 3.36386 23.5555 3.36386H22.6666C22.4212 3.36386 22.2222 3.56285 22.2222 3.80831V17.85Z" fill="#E3E1E5"/>
<path d="M0 17.85H1.77778V16.6486C1.77778 16.4031 1.57879 16.2041 1.33333 16.2041H0.444444C0.198984 16.2041 0 16.4031 0 16.6486V17.85Z" />
<path d="M4.44434 17.85H6.22211V14.7284C6.22211 14.483 6.02313 14.284 5.77767 14.284H4.88878C4.64332 14.284 4.44434 14.483 4.44434 14.7284V17.85Z" />
<path d="M13.3333 17.85H15.111V10.0653C15.111 9.81979 14.912 9.62081 14.6666 9.62081H13.7777C13.5322 9.62081 13.3333 9.81979 13.3333 10.0653V17.85Z" />
<path d="M17.7778 17.85H19.5556V9.24234C19.5556 8.99688 19.3566 8.79789 19.1112 8.79789H18.2223C17.9768 8.79789 17.7778 8.99688 17.7778 9.24234V17.85Z" />
<path d="M22.2222 17.85H23.9999V10.3396C23.9999 10.0941 23.801 9.89511 23.5555 9.89511H22.6666C22.4212 9.89511 22.2222 10.0941 22.2222 10.3396V17.85Z" />
</svg>
