<svg viewBox="0 0 24 24" fill="none" xmlns="http://www.w3.org/2000/svg">
    <path opacity="0.4" d="M12 20.4721C13.0615 21.4222 14.4633 21.9999 16 21.9999C19.3137 21.9999 22 19.3136 22 15.9999C22 13.233 20.1271 10.9035 17.5798 10.2101" stroke="#5542F6" stroke-width="2" stroke-linecap="round" stroke-linejoin="round"/>
    <path d="M6.42018 10.21C3.87293 10.9035 2 13.2329 2 15.9999C2 19.3136 4.68629 21.9999 8 21.9999C11.3137 21.9999 14 19.3136 14 15.9999C14 15.2194 13.851 14.4737 13.5798 13.7897M18 7.99988C18 11.3136 15.3137 13.9999 12 13.9999C8.68629 13.9999 6 11.3136 6 7.99988C6 4.68617 8.68629 1.99988 12 1.99988C15.3137 1.99988 18 4.68617 18 7.99988Z" stroke="#5542F6" stroke-width="2" stroke-linecap="round" stroke-linejoin="round"/>
</svg>
