<svg viewBox="0 0 38 38" fill="none" xmlns="http://www.w3.org/2000/svg">
<rect x="1" y="1" width="36" height="36" rx="4" fill="white" stroke="#EBEAED"/>
<path d="M27 25C28.1 25 28.99 24.1 28.99 23L29 13C29 11.89 28.1 11 27 11H11C9.89 11 9 11.89 9 13V23C9 24.1 9.89 25 11 25H7V27H31V25H27ZM20 21.47V19.28C17.22 19.28 15.39 20.13 14 22C14.56 19.33 16.11 16.67 20 16.13V14L24 17.73L20 21.47Z" fill="#B6B4BA"/>
<mask id="mask0_1314_10568" style="mask-type:alpha" maskUnits="userSpaceOnUse" x="0" y="0" width="38" height="38">
<rect x="1" y="1" width="36" height="36" rx="4" fill="white" stroke="white"/>
</mask>
<g mask="url(#mask0_1314_10568)">
</g>
</svg>
