<svg viewBox="0 0 24 25" fill="none" xmlns="http://www.w3.org/2000/svg">
    <path opacity="0.4" d="M11 4.5H6.8C5.11984 4.5 4.27976 4.5 3.63803 4.82698C3.07354 5.1146 2.6146 5.57354 2.32698 6.13803C2 6.77976 2 7.61984 2 9.3V17.7C2 19.3802 2 20.2202 2.32698 20.862C2.6146 21.4265 3.07354 21.8854 3.63803 22.173C4.27976 22.5 5.11984 22.5 6.8 22.5H15.2C16.8802 22.5 17.7202 22.5 18.362 22.173C18.9265 21.8854 19.3854 21.4265 19.673 20.862C20 20.2202 20 19.3802 20 17.7V13.5" stroke="#84818A" stroke-width="2" stroke-linecap="round" stroke-linejoin="round"/>
    <path d="M8 14.8255C8 14.3363 8 14.0917 8.05526 13.8615C8.10425 13.6574 8.18506 13.4624 8.29472 13.2834C8.4184 13.0816 8.59136 12.9086 8.93726 12.5627L18.5 2.99998C19.3285 2.17155 20.6716 2.17156 21.5 2.99998C22.3285 3.82841 22.3285 5.17156 21.5 5.99998L11.9373 15.5627C11.5914 15.9086 11.4184 16.0816 11.2166 16.2053C11.0377 16.3149 10.8426 16.3957 10.6385 16.4447C10.4083 16.5 10.1637 16.5 9.67454 16.5H8V14.8255Z" stroke="#84818A" stroke-width="2" stroke-linecap="round" stroke-linejoin="round"/>
</svg>
