<svg width="15" height="14" viewBox="0 0 15 14" fill="none" xmlns="http://www.w3.org/2000/svg">
    <path d="M7.49967 0.333374C3.81967 0.333374 0.833008 3.32004 0.833008 7.00004C0.833008 10.68 3.81967 13.6667 7.49967 13.6667H10.833V12.3334H7.49967C4.60634 12.3334 2.16634 9.89337 2.16634 7.00004C2.16634 4.10671 4.60634 1.66671 7.49967 1.66671C10.393 1.66671 12.833 4.10671 12.833 7.00004V7.95337C12.833 8.48004 12.3597 9.00004 11.833 9.00004C11.3063 9.00004 10.833 8.48004 10.833 7.95337V7.00004C10.833 5.16004 9.33967 3.66671 7.49967 3.66671C5.65967 3.66671 4.16634 5.16004 4.16634 7.00004C4.16634 8.84004 5.65967 10.3334 7.49967 10.3334C8.41967 10.3334 9.25968 9.96004 9.85967 9.35337C10.293 9.94671 11.0397 10.3334 11.833 10.3334C13.1463 10.3334 14.1663 9.26671 14.1663 7.95337V7.00004C14.1663 3.32004 11.1797 0.333374 7.49967 0.333374ZM7.49967 9.00004C6.39301 9.00004 5.49967 8.10671 5.49967 7.00004C5.49967 5.89337 6.39301 5.00004 7.49967 5.00004C8.60634 5.00004 9.49967 5.89337 9.49967 7.00004C9.49967 8.10671 8.60634 9.00004 7.49967 9.00004Z" fill="#84818A"/>
</svg>
