<svg width="16" height="16" viewBox="0 0 16 16" fill="none" xmlns="http://www.w3.org/2000/svg">
<path d="M15.9999 8.18387C15.9999 7.64007 15.955 7.09333 15.859 6.55835H8.16113V9.6389H12.5693C12.3864 10.6324 11.7987 11.5113 10.938 12.0698V14.0687H13.5679C15.1123 12.6754 15.9999 10.6177 15.9999 8.18387Z" fill="#4285F4"/>
<path d="M8.16071 16C10.3618 16 12.2181 15.2916 13.5705 14.0688L10.9406 12.07C10.2089 12.5579 9.26426 12.8342 8.16371 12.8342C6.03458 12.8342 4.22931 11.4262 3.58157 9.5332H0.867676V11.5938C2.25311 14.2951 5.07497 16 8.16071 16Z" fill="#14B13B"/>
<path d="M3.57905 9.53317C3.23718 8.53963 3.23718 7.46379 3.57905 6.47026V4.4097H0.868147C-0.289382 6.67014 -0.289382 9.33329 0.868147 11.5937L3.57905 9.53317Z" fill="#FBBC04"/>
<path d="M8.16071 3.16633C9.32424 3.1487 10.4488 3.57786 11.2914 4.36563L13.6215 2.08167C12.1461 0.723645 10.1879 -0.0229766 8.16071 0.000539093C5.07497 0.000539093 2.25311 1.70542 0.867676 4.40972L3.57857 6.47028C4.22331 4.57433 6.03158 3.16633 8.16071 3.16633Z" fill="#EA4335"/>
</svg>
