<svg width="13" height="14" viewBox="0 0 13 14" fill="none" xmlns="http://www.w3.org/2000/svg">
    <path d="M10.3852 1.98C10.3319 1.98 10.2785 1.96667 10.2319 1.94C8.95187 1.28 7.8452 0.999999 6.51854 0.999999C5.19854 0.999999 3.9452 1.31333 2.8052 1.94C2.6452 2.02667 2.4452 1.96667 2.35187 1.80667C2.2652 1.64667 2.3252 1.44 2.4852 1.35333C3.7252 0.679999 5.0852 0.333332 6.51854 0.333332C7.93854 0.333332 9.17854 0.646665 10.5385 1.34667C10.7052 1.43333 10.7652 1.63333 10.6785 1.79333C10.6185 1.91333 10.5052 1.98 10.3852 1.98ZM0.845205 5.48C0.778538 5.48 0.711872 5.46 0.651872 5.42C0.498538 5.31333 0.465205 5.10667 0.571871 4.95333C1.23187 4.02 2.07187 3.28667 3.07187 2.77333C5.1652 1.69333 7.8452 1.68667 9.9452 2.76667C10.9452 3.28 11.7852 4.00667 12.4452 4.93333C12.5519 5.08 12.5185 5.29333 12.3652 5.4C12.2119 5.50667 12.0052 5.47333 11.8985 5.32C11.2985 4.48 10.5385 3.82 9.63854 3.36C7.7252 2.38 5.27854 2.38 3.37187 3.36667C2.4652 3.83333 1.7052 4.5 1.1052 5.34C1.05187 5.43333 0.951871 5.48 0.845205 5.48ZM5.01187 13.5267C4.9252 13.5267 4.83854 13.4933 4.77854 13.4267C4.19854 12.8467 3.8852 12.4733 3.43854 11.6667C2.97854 10.8467 2.73854 9.84667 2.73854 8.77333C2.73854 6.79333 4.43187 5.18 6.51187 5.18C8.59187 5.18 10.2852 6.79333 10.2852 8.77333C10.2852 8.96 10.1385 9.10667 9.95187 9.10667C9.7652 9.10667 9.61854 8.96 9.61854 8.77333C9.61854 7.16 8.2252 5.84667 6.51187 5.84667C4.79854 5.84667 3.40521 7.16 3.40521 8.77333C3.40521 9.73333 3.61854 10.62 4.02521 11.34C4.45187 12.1067 4.7452 12.4333 5.25854 12.9533C5.3852 13.0867 5.3852 13.2933 5.25854 13.4267C5.1852 13.4933 5.09854 13.5267 5.01187 13.5267ZM9.79187 12.2933C8.99854 12.2933 8.29854 12.0933 7.7252 11.7C6.73187 11.0267 6.13854 9.93333 6.13854 8.77333C6.13854 8.58667 6.2852 8.44 6.47187 8.44C6.65854 8.44 6.8052 8.58667 6.8052 8.77333C6.8052 9.71333 7.2852 10.6 8.09854 11.1467C8.57187 11.4667 9.1252 11.62 9.79187 11.62C9.95187 11.62 10.2185 11.6 10.4852 11.5533C10.6652 11.52 10.8385 11.64 10.8719 11.8267C10.9052 12.0067 10.7852 12.18 10.5985 12.2133C10.2185 12.2867 9.8852 12.2933 9.79187 12.2933ZM8.45187 13.6667C8.4252 13.6667 8.39187 13.66 8.3652 13.6533C7.3052 13.36 6.61187 12.9667 5.8852 12.2533C4.95187 11.3267 4.43854 10.0933 4.43854 8.77333C4.43854 7.69333 5.35854 6.81333 6.49187 6.81333C7.6252 6.81333 8.5452 7.69333 8.5452 8.77333C8.5452 9.48667 9.1652 10.0667 9.93187 10.0667C10.6985 10.0667 11.3185 9.48667 11.3185 8.77333C11.3185 6.26 9.15187 4.22 6.4852 4.22C4.59187 4.22 2.85854 5.27333 2.07854 6.90667C1.81854 7.44667 1.6852 8.08 1.6852 8.77333C1.6852 9.29333 1.73187 10.1133 2.13187 11.18C2.19854 11.3533 2.11187 11.5467 1.93854 11.6067C1.7652 11.6733 1.57187 11.58 1.51187 11.4133C1.1852 10.54 1.0252 9.67333 1.0252 8.77333C1.0252 7.97333 1.17854 7.24667 1.47854 6.61333C2.3652 4.75333 4.33187 3.54667 6.4852 3.54667C9.51854 3.54667 11.9852 5.88667 11.9852 8.76667C11.9852 9.84667 11.0652 10.7267 9.93187 10.7267C8.79854 10.7267 7.87854 9.84667 7.87854 8.76667C7.87854 8.05333 7.25854 7.47333 6.49187 7.47333C5.7252 7.47333 5.10521 8.05333 5.10521 8.76667C5.10521 9.90667 5.5452 10.9733 6.35187 11.7733C6.9852 12.4 7.59187 12.7467 8.53187 13.0067C8.71187 13.0533 8.81187 13.24 8.7652 13.4133C8.73187 13.5667 8.59187 13.6667 8.45187 13.6667Z" fill="#84818A"/>
</svg>
