<svg viewBox="0 0 16 5" fill="none" xmlns="http://www.w3.org/2000/svg">
<path d="M2 0.557617C0.9 0.557617 0 1.51153 0 2.67743C0 3.84333 0.9 4.79725 2 4.79725C3.1 4.79725 4 3.84333 4 2.67743C4 1.51153 3.1 0.557617 2 0.557617ZM14 0.557617C12.9 0.557617 12 1.51153 12 2.67743C12 3.84333 12.9 4.79725 14 4.79725C15.1 4.79725 16 3.84333 16 2.67743C16 1.51153 15.1 0.557617 14 0.557617ZM8 0.557617C6.9 0.557617 6 1.51153 6 2.67743C6 3.84333 6.9 4.79725 8 4.79725C9.1 4.79725 10 3.84333 10 2.67743C10 1.51153 9.1 0.557617 8 0.557617Z" fill="#84818A"/>
</svg>
