<svg viewBox="0 0 27 30" fill="none" xmlns="http://www.w3.org/2000/svg">
    <path fill-rule="evenodd" clip-rule="evenodd" d="M23.4167 3.66659H17.495C16.9 2.02325 15.3417 0.833252 13.5 0.833252C11.6583 0.833252 10.1 2.02325 9.505 3.66659H3.58333C2.025 3.66659 0.75 4.94159 0.75 6.49992V26.3333C0.75 27.8916 2.025 29.1666 3.58333 29.1666H23.4167C24.975 29.1666 26.25 27.8916 26.25 26.3333V6.49992C26.25 4.94159 24.975 3.66659 23.4167 3.66659ZM13.5 3.66659C14.2792 3.66659 14.9167 4.30409 14.9167 5.08325C14.9167 5.86242 14.2792 6.49992 13.5 6.49992C12.7208 6.49992 12.0833 5.86242 12.0833 5.08325C12.0833 4.30409 12.7208 3.66659 13.5 3.66659ZM10.6667 23.4999L5 17.8333L6.9975 15.8358L10.6667 19.4908L20.0025 10.1549L22 12.1666L10.6667 23.4999Z" fill="#5542F6"/>
</svg>
