<svg viewBox="0 0 14 13" fill="#5542F6" xmlns="http://www.w3.org/2000/svg">
<path d="M10.1481 9.15057H4.04681V8.13368H10.1481V9.15057ZM10.1481 7.1168H4.04681V6.09991H10.1481V7.1168ZM10.1481 5.08302H4.04681V4.06614H10.1481V5.08302ZM2.52148 11.6928L3.28415 10.9301L4.04681 11.6928L4.80948 10.9301L5.57214 11.6928L6.33481 10.9301L7.09747 11.6928L7.86013 10.9301L8.6228 11.6928L9.38546 10.9301L10.1481 11.6928L10.9108 10.9301L11.6735 11.6928V1.52393L10.9108 2.28659L10.1481 1.52393L9.38546 2.28659L8.6228 1.52393L7.86013 2.28659L7.09747 1.52393L6.33481 2.28659L5.57214 1.52393L4.80948 2.28659L4.04681 1.52393L3.28415 2.28659L2.52148 1.52393V11.6928Z" />
</svg>
