<svg viewBox="0 0 13 13" fill="white" xmlns="http://www.w3.org/2000/svg">
<path fill-rule="evenodd" clip-rule="evenodd" d="M2.54032 2.54053C1.97871 2.54053 1.52344 2.9958 1.52344 3.55741V9.65873C1.52344 10.2203 1.97871 10.6756 2.54032 10.6756H10.6754C11.237 10.6756 11.6923 10.2203 11.6923 9.65873V3.55741C11.6923 2.9958 11.237 2.54053 10.6754 2.54053H2.54032ZM6.09942 9.15028H7.11631V8.64184H7.62475C7.90439 8.64184 8.13319 8.41304 8.13319 8.1334V6.60807C8.13319 6.32843 7.90439 6.09963 7.62475 6.09963H6.09942V5.59118H8.13319V4.5743H7.11631V4.06586H6.09942V4.5743H5.59098C5.31134 4.5743 5.08254 4.8031 5.08254 5.08274V6.60807C5.08254 6.88771 5.31134 7.11651 5.59098 7.11651H7.11631V7.62495H5.08254V8.64184H6.09942V9.15028Z" />
</svg>
