<svg viewBox="0 0 13 13" fill="#5542F6" xmlns="http://www.w3.org/2000/svg">
<path d="M2.28495 3.5577H1.26807V10.6759C1.26807 11.2352 1.72566 11.6928 2.28495 11.6928H9.40315V10.6759H2.28495V3.5577ZM10.42 1.52393H4.31872C3.75944 1.52393 3.30184 1.98152 3.30184 2.54081V8.64212C3.30184 9.20141 3.75944 9.65901 4.31872 9.65901H10.42C10.9793 9.65901 11.4369 9.20141 11.4369 8.64212V2.54081C11.4369 1.98152 10.9793 1.52393 10.42 1.52393ZM7.36938 2.54081C8.21339 2.54081 8.89471 3.22212 8.89471 4.06614C8.89471 4.91015 8.21339 5.59147 7.36938 5.59147C6.52536 5.59147 5.84405 4.91015 5.84405 4.06614C5.84405 3.22212 6.52536 2.54081 7.36938 2.54081ZM10.42 8.64212H4.31872V7.87946C4.31872 6.86766 6.35249 6.35413 7.36938 6.35413C8.38626 6.35413 10.42 6.86766 10.42 7.87946V8.64212Z" />
</svg>
