<svg width="16" height="15" viewBox="0 0 16 15" fill="none" xmlns="http://www.w3.org/2000/svg">
    <path fill-rule="evenodd" clip-rule="evenodd" d="M15.9967 8.56731C16.0144 8.74711 15.9612 8.92258 15.8466 9.06225L11.898 13.8691C11.7834 14.0085 11.6213 14.095 11.4418 14.1127C11.4194 14.1151 11.3967 14.1161 11.3746 14.1161C11.2185 14.1161 11.0688 14.0626 10.9468 13.9623L1.61651 6.29738C1.32809 6.06109 0.719188 3.61473 0.68276 3.23944C0.669726 3.10643 0.670713 2.96706 0.765318 2.8521L1.13227 2.4056L2.87786 0.281083C2.97243 0.165797 3.10881 0.137716 3.24148 0.125012C3.61715 0.0859119 6.13467 0.210571 6.42276 0.447514L15.752 8.11176C15.8917 8.22606 15.9786 8.38818 15.9967 8.56731ZM1.34853 3.19532L1.64862 2.82969L3.32737 0.786381C3.78822 0.741278 5.68213 0.902365 6.03707 0.995942L15.3279 8.62845L11.381 13.445L2.07975 5.8128C1.91899 5.48294 1.39532 3.65618 1.34853 3.19532Z" fill="#5542F6"/>
</svg>
