<svg width="21" height="32" viewBox="0 0 21 32" fill="none" xmlns="http://www.w3.org/2000/svg">
<path d="M20.67 15.5025C20.67 12.2211 19.1327 9.28858 16.7427 7.40244L15.5025 0H5.1675L3.94022 7.40244C1.53733 9.28858 0 12.2082 0 15.5025C0 18.7968 1.53733 21.7164 3.94022 23.6026L5.1675 31.005H15.5025L16.7427 23.6026C19.1327 21.7164 20.67 18.7839 20.67 15.5025ZM2.58375 15.5025C2.58375 11.2264 6.05889 7.75125 10.335 7.75125C14.6111 7.75125 18.0863 11.2264 18.0863 15.5025C18.0863 19.7786 14.6111 23.2537 10.335 23.2537C6.05889 23.2537 2.58375 19.7786 2.58375 15.5025Z" fill="#5542F6"/>
</svg>
